<svg width="70" height="70" viewBox="0 0 70 70" fill="none" xmlns="http://www.w3.org/2000/svg">
<g clip-path="url(#clip0)">
<path d="M11.8242 24.7461H3.78516V28.8477H11.8242V24.7461Z" fill="#F5A700"/>
<path d="M11.8242 41.1523H3.78516V45.2539H11.8242V41.1523Z" fill="#F5A700"/>
<path d="M11.8248 32.9492H0V37.0508H11.8248V32.9492Z" fill="#F5A700"/>
<path d="M42.9636 7.9632C28.0555 7.9632 15.9268 20.0919 15.9268 35C15.9268 49.9081 28.0554 62.0368 42.9636 62.0368C57.8718 62.0368 70.0005 49.9081 70.0005 35C70.0005 20.0919 57.8718 7.9632 42.9636 7.9632ZM42.9636 57.9353C30.3171 57.9353 20.0283 47.6465 20.0283 35C20.0283 22.3535 30.3171 12.0648 42.9636 12.0648C55.6102 12.0648 65.899 22.3535 65.899 35C65.899 47.6465 55.6102 57.9353 42.9636 57.9353Z" fill="#EFB6BA"/>
<path d="M44.2871 36.019V22.7714H40.1855V38.1872L50.755 45.39L53.0649 42.0006L44.2871 36.019Z" fill="#F5A700"/>
</g>
<defs>
<clipPath id="clip0">
<rect width="70" height="70" fill="white"/>
</clipPath>
</defs>
</svg>
