<svg width="60" height="60" viewBox="0 0 60 60" fill="none" xmlns="http://www.w3.org/2000/svg">
<g clip-path="url(#clip0)">
<path d="M55.1436 15.449C55.1128 13.8291 55.0834 12.2988 55.0834 10.8183C55.0834 9.65845 54.1434 8.71815 52.9833 8.71815C44.0016 8.71815 37.1633 6.13692 31.4632 0.59475C30.6477 -0.198268 29.3501 -0.197988 28.535 0.59475C22.8354 6.13692 15.9982 8.71815 7.01708 8.71815C5.85724 8.71815 4.91693 9.65845 4.91693 10.8183C4.91693 12.299 4.88781 13.8299 4.85673 15.4501C4.56886 30.5253 4.1746 51.1715 29.3112 59.8843C29.5341 59.9616 29.7665 60.0003 29.9989 60.0003C30.2313 60.0003 30.464 59.9616 30.6867 59.8843C55.8252 51.1712 55.4315 30.5245 55.1436 15.449ZM29.9992 55.6714C8.44127 47.8401 8.76721 30.6846 9.05647 15.5302C9.07383 14.6207 9.09064 13.7392 9.1024 12.8751C17.5142 12.52 24.2409 9.97096 29.9992 4.95467C35.7581 9.97096 42.4859 12.5203 50.8983 12.8751C50.91 13.7389 50.9268 14.6199 50.9442 15.5288C51.2332 30.6838 51.5588 47.8398 29.9992 55.6714Z" fill="#EFB6BA"/>
<path d="M37.2315 22.7046L27.0951 32.8405L22.7696 28.5151C21.9494 27.6952 20.6196 27.6952 19.7997 28.5151C18.9795 29.3355 18.9795 30.665 19.7997 31.4852L25.6101 37.2957C26.0201 37.7056 26.5577 37.9106 27.0951 37.9106C27.6324 37.9106 28.1701 37.7056 28.58 37.2957L40.2012 25.6748C41.0216 24.8546 41.0216 23.5248 40.2014 22.7049C39.3815 21.8847 38.0517 21.8844 37.2315 22.7046Z" fill="#F5A700"/>
</g>
<defs>
<clipPath id="clip0">
<rect width="60" height="60" fill="white"/>
</clipPath>
</defs>
</svg>
