<svg width="60" height="60" viewBox="0 0 60 60" fill="none" xmlns="http://www.w3.org/2000/svg">
<g clip-path="url(#clip0)">
<path d="M59.0435 46.3334L36.11 6.61137C34.8348 4.40263 32.5507 3.0838 30 3.0838C27.4494 3.0838 25.1652 4.40263 23.8899 6.61137L0.956512 46.3333C-0.318837 48.5423 -0.318837 51.1797 0.956512 53.3886C2.23186 55.5974 4.51584 56.9161 7.06654 56.9161H52.9334C55.484 56.9161 57.7681 55.5973 59.0435 53.3887C60.3189 51.1797 60.3189 48.5423 59.0435 46.3334ZM55.9993 51.6311C55.3593 52.7395 54.2132 53.4011 52.9334 53.4011H7.06654C5.78662 53.4011 4.64053 52.7395 4.00069 51.6311C3.36084 50.5227 3.36084 49.1995 4.00069 48.0911L26.9344 8.36907C27.5742 7.26071 28.7203 6.59907 30.0001 6.59907C31.2798 6.59907 32.426 7.26071 33.0658 8.36907L55.9994 48.0911C56.6391 49.1995 56.6391 50.5227 55.9993 51.6311Z" fill="#EFB6BA"/>
<path d="M31.7573 20.6261H28.2422V38.2021H31.7573V20.6261Z" fill="#F5A700"/>
<path d="M29.9998 41.7175C28.7075 41.7175 27.6562 42.7688 27.6562 44.061C27.6562 45.3532 28.7075 46.4045 29.9998 46.4045C31.2919 46.4045 32.3433 45.3532 32.3433 44.061C32.3433 42.7688 31.292 41.7175 29.9998 41.7175Z" fill="#F5A700"/>
</g>
<defs>
<clipPath id="clip0">
<rect width="60" height="60" fill="white"/>
</clipPath>
</defs>
</svg>
