<svg width="60" height="60" viewBox="0 0 60 60" fill="none" xmlns="http://www.w3.org/2000/svg">
<path d="M29.998 7.03009C29.0273 7.03009 28.2402 7.81712 28.2402 8.7879C28.2402 9.75868 29.0273 10.5457 29.998 10.5457C35.8145 10.5457 40.5467 15.277 40.5467 21.0926C40.5467 22.0634 41.3337 22.8504 42.3045 22.8504C43.2752 22.8504 44.0623 22.0634 44.0623 21.0926C44.0623 13.3385 37.7531 7.03009 29.998 7.03009Z" fill="#F5A700"/>
<path d="M25.4688 0.472254C17.527 2.13175 11.0875 8.50956 9.39313 16.5007C7.96239 23.2486 9.72547 30.0232 14.2303 35.0875C16.4323 37.5628 17.6952 40.8303 17.6952 44.0613V47.5769C17.6952 49.916 19.2265 51.9032 21.3389 52.5914C22.0336 56.6959 25.5961 59.9987 29.9998 59.9987C34.4025 59.9987 37.9659 56.6969 38.6608 52.5914C40.7732 51.9032 42.3045 49.916 42.3045 47.5768V44.0612C42.3045 40.8239 43.5716 37.5956 45.872 34.9711C49.2392 31.1297 51.0936 26.2008 51.0936 21.0926C51.0936 7.78417 38.9121 -2.33626 25.4688 0.472254ZM29.9998 56.4832C27.7402 56.4832 25.7591 54.9284 25.0275 52.8387H34.9721C34.2406 54.9284 32.2595 56.4832 29.9998 56.4832ZM38.7889 47.5769C38.7889 48.5462 38.0004 49.3348 37.0311 49.3348H22.9686C21.9993 49.3348 21.2108 48.5462 21.2108 47.5769V45.8191H38.7889V47.5769ZM43.2282 32.6539C40.7766 35.4509 39.2683 38.8235 38.8856 42.3035H21.1145C20.7322 38.8216 19.2277 35.4158 16.8573 32.7509C13.1028 28.5302 11.6357 22.873 12.8323 17.2299C14.2291 10.6424 19.5963 5.291 26.188 3.9137C37.4408 1.5621 47.578 10.0127 47.578 21.0926C47.578 25.3479 46.0332 29.4538 43.2282 32.6539Z" fill="#EFB6BA"/>
<path d="M5.27344 21.0927H1.75781C0.787031 21.0927 0 21.8798 0 22.8505C0 23.8213 0.787031 24.6084 1.75781 24.6084H5.27344C6.24422 24.6084 7.03125 23.8213 7.03125 22.8505C7.03125 21.8798 6.24422 21.0927 5.27344 21.0927Z" fill="#F5A700"/>
<path d="M6.00131 12.3034L3.51541 9.81754C2.82904 9.13105 1.716 9.13105 1.02951 9.81754C0.343027 10.504 0.343027 11.617 1.02951 12.3034L3.51541 14.7893C4.20178 15.4758 5.31482 15.4759 6.00131 14.7893C6.68779 14.1028 6.68779 12.9899 6.00131 12.3034Z" fill="#F5A700"/>
<path d="M6.00131 30.9113C5.31482 30.2248 4.20178 30.2248 3.51541 30.9113L1.02951 33.3972C0.343027 34.0837 0.343027 35.1966 1.02951 35.8831C1.71588 36.5696 2.82893 36.5697 3.51541 35.8831L6.00131 33.3972C6.68779 32.7107 6.68779 31.5978 6.00131 30.9113Z" fill="#F5A700"/>
<path d="M58.2422 21.0927H54.7266C53.7558 21.0927 52.9688 21.8798 52.9688 22.8505C52.9688 23.8213 53.7558 24.6084 54.7266 24.6084H58.2422C59.213 24.6084 60 23.8213 60 22.8505C60 21.8798 59.213 21.0927 58.2422 21.0927Z" fill="#F5A700"/>
<path d="M58.9701 9.81754C58.2837 9.13105 57.1707 9.13105 56.4842 9.81754L53.9983 12.3034C53.3118 12.9899 53.3118 14.1028 53.9983 14.7893C54.6846 15.4757 55.7977 15.4758 56.4842 14.7893L58.9701 12.3034C59.6566 11.6169 59.6566 10.504 58.9701 9.81754Z" fill="#F5A700"/>
<path d="M58.9701 33.3972L56.4842 30.9113C55.7978 30.2248 54.6848 30.2248 53.9983 30.9113C53.3118 31.5978 53.3118 32.7107 53.9983 33.3972L56.4842 35.8831C57.1705 36.5695 58.2836 36.5696 58.9701 35.8831C59.6566 35.1966 59.6566 34.0837 58.9701 33.3972Z" fill="#F5A700"/>
</svg>
